<svg width="163" height="114" viewBox="0 0 163 114" fill="none" xmlns="http://www.w3.org/2000/svg">
<path d="M12.4756 98.9863C12.0882 98.6673 11.5299 98.3597 10.8008 98.0635C10.0716 97.7673 9.27409 97.6191 8.4082 97.6191C7.49675 97.6191 6.71061 97.79 6.04981 98.1318C5.41178 98.4508 4.8877 98.9066 4.47754 99.499C4.06738 100.069 3.77116 100.752 3.58887 101.55C3.40658 102.347 3.31543 103.202 3.31543 104.113C3.31543 106.187 3.82812 107.793 4.85352 108.933C5.87891 110.049 7.24609 110.607 8.95508 110.607C9.82096 110.607 10.5387 110.573 11.1084 110.505C11.7008 110.414 12.1566 110.323 12.4756 110.231V98.9863ZM12.4756 87.0234L15.6543 86.4766V112.487C14.9251 112.692 13.9909 112.897 12.8516 113.103C11.7122 113.308 10.402 113.41 8.9209 113.41C7.55371 113.41 6.32324 113.194 5.22949 112.761C4.13574 112.328 3.2015 111.713 2.42676 110.915C1.65202 110.118 1.04818 109.149 0.615234 108.01C0.205078 106.848 0 105.549 0 104.113C0 102.746 0.170898 101.493 0.512695 100.354C0.877279 99.2142 1.40137 98.2344 2.08496 97.4141C2.76855 96.5937 3.60026 95.9557 4.58008 95.5C5.58268 95.0443 6.72201 94.8164 7.99805 94.8164C9.02344 94.8164 9.9235 94.9531 10.6982 95.2266C11.4958 95.5 12.0882 95.762 12.4756 96.0127V87.0234Z" fill="#DFE4E0"/>
<path d="M24.2972 113H21.1185V95.2266H24.2972V113ZM22.6908 92.0137C22.1211 92.0137 21.6312 91.8314 21.221 91.4668C20.8337 91.0794 20.64 90.5667 20.64 89.9287C20.64 89.2907 20.8337 88.7894 21.221 88.4248C21.6312 88.0374 22.1211 87.8437 22.6908 87.8437C23.2604 87.8437 23.739 88.0374 24.1263 88.4248C24.5365 88.7894 24.7416 89.2907 24.7416 89.9287C24.7416 90.5667 24.5365 91.0794 24.1263 91.4668C23.739 91.8314 23.2604 92.0137 22.6908 92.0137Z" fill="#DFE4E0"/>
<path d="M33.8993 110.71C35.1981 110.71 36.1552 110.539 36.7704 110.197C37.4084 109.855 37.7274 109.309 37.7274 108.557C37.7274 107.782 37.4198 107.167 36.8046 106.711C36.1893 106.255 35.1754 105.743 33.7626 105.173C33.079 104.899 32.4182 104.626 31.7802 104.353C31.1649 104.056 30.6294 103.715 30.1737 103.327C29.718 102.94 29.3534 102.473 29.08 101.926C28.8065 101.379 28.6698 100.707 28.6698 99.9092C28.6698 98.3369 29.2509 97.0951 30.413 96.1836C31.5751 95.2493 33.1587 94.7822 35.164 94.7822C35.6653 94.7822 36.1666 94.8164 36.6679 94.8848C37.1692 94.9303 37.6363 94.9987 38.0692 95.0898C38.5022 95.1582 38.8781 95.238 39.1972 95.3291C39.539 95.4202 39.801 95.5 39.9833 95.5684L39.4022 98.3027C39.0604 98.1204 38.525 97.9382 37.7958 97.7559C37.0666 97.5508 36.1893 97.4482 35.164 97.4482C34.2753 97.4482 33.5005 97.6305 32.8397 97.9951C32.1789 98.3369 31.8485 98.8838 31.8485 99.6357C31.8485 100.023 31.9169 100.365 32.0536 100.661C32.2131 100.957 32.441 101.231 32.7372 101.481C33.0562 101.709 33.4436 101.926 33.8993 102.131C34.355 102.336 34.9019 102.552 35.5399 102.78C36.383 103.099 37.135 103.418 37.7958 103.737C38.4566 104.034 39.0149 104.387 39.4706 104.797C39.9491 105.207 40.3137 105.708 40.5643 106.301C40.815 106.87 40.9403 107.577 40.9403 108.42C40.9403 110.061 40.3251 111.302 39.0946 112.146C37.8869 112.989 36.1552 113.41 33.8993 113.41C32.327 113.41 31.0966 113.273 30.2079 113C29.3192 112.749 28.7154 112.556 28.3964 112.419L28.9774 109.685C29.342 109.821 29.9231 110.026 30.7206 110.3C31.5181 110.573 32.5777 110.71 33.8993 110.71Z" fill="#DFE4E0"/>
<path d="M52.7422 113.41C51.3066 113.41 50.042 113.182 48.9482 112.727C47.8773 112.271 46.9658 111.633 46.2139 110.812C45.4847 109.992 44.9378 109.024 44.5732 107.907C44.2087 106.768 44.0264 105.515 44.0264 104.147C44.0264 102.78 44.2201 101.527 44.6074 100.388C45.0176 99.2484 45.5872 98.2686 46.3164 97.4482C47.0456 96.6051 47.9343 95.9557 48.9824 95.5C50.0534 95.0215 51.2383 94.7822 52.5371 94.7822C53.3346 94.7822 54.1322 94.8506 54.9297 94.9873C55.7272 95.124 56.4906 95.3405 57.2197 95.6367L56.502 98.3369C56.0234 98.1091 55.4652 97.9268 54.8272 97.79C54.2119 97.6533 53.5511 97.585 52.8447 97.585C51.0674 97.585 49.7002 98.1432 48.7432 99.2598C47.8089 100.376 47.3418 102.006 47.3418 104.147C47.3418 105.104 47.4443 105.982 47.6494 106.779C47.8773 107.577 48.2191 108.26 48.6748 108.83C49.1533 109.4 49.7572 109.844 50.4863 110.163C51.2155 110.459 52.1042 110.607 53.1524 110.607C53.9954 110.607 54.7588 110.528 55.4424 110.368C56.126 110.209 56.6615 110.038 57.0488 109.855L57.4932 112.521C57.3109 112.635 57.0488 112.749 56.707 112.863C56.3652 112.954 55.9779 113.034 55.5449 113.103C55.112 113.194 54.6449 113.262 54.1436 113.308C53.665 113.376 53.1979 113.41 52.7422 113.41Z" fill="#DFE4E0"/>
<path d="M76.1604 104.113C76.1604 105.526 75.9553 106.802 75.5451 107.941C75.135 109.081 74.5539 110.061 73.802 110.881C73.0728 111.701 72.1955 112.339 71.1701 112.795C70.1447 113.228 69.0282 113.444 67.8205 113.444C66.6128 113.444 65.4963 113.228 64.4709 112.795C63.4455 112.339 62.5568 111.701 61.8049 110.881C61.0757 110.061 60.5061 109.081 60.0959 107.941C59.6857 106.802 59.4807 105.526 59.4807 104.113C59.4807 102.723 59.6857 101.459 60.0959 100.319C60.5061 99.1572 61.0757 98.166 61.8049 97.3457C62.5568 96.5254 63.4455 95.8988 64.4709 95.4658C65.4963 95.0101 66.6128 94.7822 67.8205 94.7822C69.0282 94.7822 70.1447 95.0101 71.1701 95.4658C72.1955 95.8988 73.0728 96.5254 73.802 97.3457C74.5539 98.166 75.135 99.1572 75.5451 100.319C75.9553 101.459 76.1604 102.723 76.1604 104.113ZM72.8449 104.113C72.8449 102.108 72.3892 100.524 71.4777 99.3623C70.5891 98.1774 69.37 97.585 67.8205 97.585C66.271 97.585 65.0406 98.1774 64.1291 99.3623C63.2404 100.524 62.7961 102.108 62.7961 104.113C62.7961 106.118 63.2404 107.714 64.1291 108.898C65.0406 110.061 66.271 110.642 67.8205 110.642C69.37 110.642 70.5891 110.061 71.4777 108.898C72.3892 107.714 72.8449 106.118 72.8449 104.113Z" fill="#DFE4E0"/>
<path d="M94.7829 112.487C94.0538 112.67 93.0854 112.863 91.8777 113.068C90.6928 113.273 89.3142 113.376 87.7419 113.376C86.3747 113.376 85.224 113.182 84.2898 112.795C83.3555 112.385 82.6036 111.815 82.0339 111.086C81.4643 110.357 81.0541 109.502 80.8035 108.522C80.5528 107.52 80.4275 106.415 80.4275 105.207V95.2266H83.6062V104.523C83.6062 106.688 83.948 108.238 84.6316 109.172C85.3152 110.106 86.4659 110.573 88.0837 110.573C88.4255 110.573 88.7787 110.562 89.1433 110.539C89.5079 110.516 89.8497 110.493 90.1687 110.471C90.4877 110.425 90.7725 110.391 91.0232 110.368C91.2966 110.323 91.4903 110.277 91.6042 110.231V95.2266H94.7829V112.487Z" fill="#DFE4E0"/>
<path d="M100.259 95.7393C100.988 95.557 101.957 95.3633 103.164 95.1582C104.372 94.9531 105.762 94.8506 107.334 94.8506C108.747 94.8506 109.921 95.0557 110.855 95.4658C111.789 95.8532 112.53 96.4115 113.077 97.1406C113.646 97.847 114.045 98.7015 114.273 99.7041C114.501 100.707 114.615 101.812 114.615 103.02V113H111.436V103.703C111.436 102.609 111.356 101.675 111.197 100.9C111.06 100.126 110.821 99.499 110.479 99.0205C110.137 98.542 109.681 98.2002 109.112 97.9951C108.542 97.7673 107.836 97.6533 106.993 97.6533C106.651 97.6533 106.298 97.6647 105.933 97.6875C105.568 97.7103 105.215 97.7445 104.873 97.79C104.554 97.8128 104.258 97.847 103.985 97.8926C103.734 97.9382 103.552 97.9723 103.438 97.9951V113H100.259V95.7393Z" fill="#DFE4E0"/>
<path d="M122.859 95.2266H129.593V97.8926H122.859V106.096C122.859 106.984 122.928 107.725 123.064 108.317C123.201 108.887 123.406 109.343 123.68 109.685C123.953 110.004 124.295 110.231 124.705 110.368C125.115 110.505 125.594 110.573 126.141 110.573C127.098 110.573 127.861 110.471 128.431 110.266C129.023 110.038 129.433 109.878 129.661 109.787L130.276 112.419C129.957 112.578 129.399 112.772 128.602 113C127.804 113.251 126.893 113.376 125.867 113.376C124.66 113.376 123.657 113.228 122.859 112.932C122.085 112.613 121.458 112.146 120.98 111.53C120.501 110.915 120.159 110.163 119.954 109.274C119.772 108.363 119.681 107.315 119.681 106.13V90.2705L122.859 89.7236V95.2266Z" fill="#DFE4E0"/>
<path d="M132.313 104.147C132.313 102.575 132.541 101.208 132.996 100.046C133.452 98.861 134.056 97.8812 134.808 97.1064C135.56 96.3317 136.426 95.7507 137.406 95.3633C138.385 94.9759 139.388 94.7822 140.413 94.7822C142.806 94.7822 144.64 95.5342 145.916 97.0381C147.192 98.5192 147.83 100.786 147.83 103.84C147.83 103.977 147.83 104.159 147.83 104.387C147.83 104.592 147.819 104.785 147.796 104.968H135.628C135.765 106.813 136.3 108.215 137.235 109.172C138.169 110.129 139.627 110.607 141.61 110.607C142.726 110.607 143.66 110.516 144.412 110.334C145.187 110.129 145.768 109.935 146.156 109.753L146.6 112.419C146.213 112.624 145.529 112.84 144.549 113.068C143.592 113.296 142.498 113.41 141.268 113.41C139.718 113.41 138.374 113.182 137.235 112.727C136.118 112.248 135.195 111.599 134.466 110.778C133.737 109.958 133.19 108.99 132.825 107.873C132.484 106.734 132.313 105.492 132.313 104.147ZM144.515 102.404C144.538 100.969 144.173 99.7952 143.421 98.8838C142.692 97.9495 141.678 97.4824 140.379 97.4824C139.65 97.4824 139.001 97.6305 138.431 97.9268C137.884 98.2002 137.417 98.5648 137.03 99.0205C136.642 99.4762 136.335 100 136.107 100.593C135.902 101.185 135.765 101.789 135.697 102.404H144.515Z" fill="#DFE4E0"/>
<path d="M158.959 94.8506C159.232 94.8506 159.54 94.8734 159.882 94.9189C160.246 94.9417 160.6 94.9873 160.941 95.0557C161.283 95.1012 161.591 95.1582 161.864 95.2266C162.161 95.2721 162.377 95.3177 162.514 95.3633L161.967 98.1318C161.716 98.0407 161.295 97.9382 160.702 97.8242C160.133 97.6875 159.392 97.6191 158.481 97.6191C157.888 97.6191 157.296 97.6875 156.703 97.8242C156.134 97.9382 155.758 98.0179 155.575 98.0635V113H152.397V95.9785C153.148 95.7051 154.083 95.4544 155.199 95.2266C156.316 94.9759 157.569 94.8506 158.959 94.8506Z" fill="#DFE4E0"/>
<path d="M39 8H98C108.493 8 117 16.5066 117 27V74H58C47.5066 74 39 65.4934 39 55V8Z" stroke="#DFE4E0" stroke-width="2"/>
<path d="M46 1H104C114.493 1 123 9.50659 123 20V67H65C54.5066 67 46 58.4934 46 48V1Z" stroke="#DFE4E0" stroke-width="2"/>
<path d="M86.9389 34.2563C86.444 33.8418 85.7307 33.442 84.7991 33.0571C83.8675 32.6722 82.8486 32.4797 81.7424 32.4797C80.5779 32.4797 79.5735 32.7018 78.7293 33.1459C77.9141 33.5605 77.2445 34.1527 76.7205 34.9226C76.1965 35.6629 75.818 36.5512 75.5852 37.5876C75.3523 38.6239 75.2358 39.7343 75.2358 40.9188C75.2358 43.6134 75.8908 45.7009 77.2009 47.1815C78.5109 48.6324 80.2576 49.3579 82.441 49.3579C83.5473 49.3579 84.4643 49.3135 85.1921 49.2246C85.9491 49.1062 86.5313 48.9877 86.9389 48.8693V34.2563ZM86.9389 18.7107L91 18V51.8008C90.0684 52.0673 88.8748 52.3338 87.4192 52.6003C85.9636 52.8667 84.2897 53 82.3974 53C80.6507 53 79.0786 52.7187 77.6812 52.1561C76.2838 51.5935 75.0902 50.794 74.1004 49.7576C73.1106 48.7212 72.3392 47.4628 71.786 45.9822C71.262 44.4721 71 42.7843 71 40.9188C71 39.1421 71.2183 37.5135 71.655 36.033C72.1208 34.5525 72.7904 33.2792 73.6638 32.2132C74.5371 31.1472 75.5997 30.3181 76.8515 29.7259C78.1325 29.1337 79.5881 28.8376 81.2183 28.8376C82.5284 28.8376 83.6783 29.0152 84.6681 29.3706C85.687 29.7259 86.444 30.0664 86.9389 30.3921V18.7107Z" fill="#DFE4E0"/>
</svg>
