<svg width="86" height="75" viewBox="0 0 86 75" fill="none" xmlns="http://www.w3.org/2000/svg">
<path d="M1 8H60C70.4934 8 79 16.5066 79 27V74H20C9.50659 74 1 65.4934 1 55V8Z" stroke="#0FB06D" stroke-width="2"/>
<path d="M8 1H66C76.4934 1 85 9.50659 85 20V67H27C16.5066 67 8 58.4934 8 48V1Z" stroke="#0FB06D" stroke-width="2"/>
<path d="M48.9389 34.2563C48.444 33.8418 47.7307 33.442 46.7991 33.0571C45.8675 32.6722 44.8486 32.4797 43.7424 32.4797C42.5779 32.4797 41.5735 32.7018 40.7293 33.1459C39.9141 33.5605 39.2445 34.1527 38.7205 34.9226C38.1965 35.6629 37.818 36.5512 37.5852 37.5876C37.3523 38.6239 37.2358 39.7343 37.2358 40.9188C37.2358 43.6134 37.8908 45.7009 39.2009 47.1815C40.5109 48.6324 42.2576 49.3579 44.441 49.3579C45.5473 49.3579 46.4643 49.3135 47.1921 49.2246C47.9491 49.1062 48.5313 48.9877 48.9389 48.8693V34.2563ZM48.9389 18.7107L53 18V51.8008C52.0684 52.0673 50.8748 52.3338 49.4192 52.6003C47.9636 52.8667 46.2897 53 44.3974 53C42.6507 53 41.0786 52.7187 39.6812 52.1561C38.2838 51.5935 37.0902 50.794 36.1004 49.7576C35.1106 48.7212 34.3392 47.4628 33.786 45.9822C33.262 44.4721 33 42.7843 33 40.9188C33 39.1421 33.2183 37.5135 33.655 36.033C34.1208 34.5525 34.7904 33.2792 35.6638 32.2132C36.5371 31.1472 37.5997 30.3181 38.8515 29.7259C40.1325 29.1337 41.5881 28.8376 43.2183 28.8376C44.5284 28.8376 45.6783 29.0152 46.6681 29.3706C47.687 29.7259 48.444 30.0664 48.9389 30.3921V18.7107Z" fill="#0FB06D"/>
</svg>
